<svg xmlns="http://www.w3.org/2000/svg" xmlns:xlink="http://www.w3.org/1999/xlink" viewBox="0 0 500 500"><defs><clipPath id="freepik--clip-path--inject-68"><rect x="139.02" y="111.21" width="229.54" height="121.89" style="fill:#fff;stroke:#263238;stroke-linecap:round;stroke-linejoin:round"></rect></clipPath></defs><g id="freepik--background-simple--inject-68"><path d="M328.3,53.28S255.75,31.92,184.12,75.13,76,198.91,44.61,263.55s-14,128,40.32,154.58S176.55,399.75,253,393.89s96.93,3.67,160.63-41.08,75.81-143.67,26.26-214S328.3,53.28,328.3,53.28Z" style="fill:#407BFF"></path><path d="M328.3,53.28S255.75,31.92,184.12,75.13,76,198.91,44.61,263.55s-14,128,40.32,154.58S176.55,399.75,253,393.89s96.93,3.67,160.63-41.08,75.81-143.67,26.26-214S328.3,53.28,328.3,53.28Z" style="fill:#fff;opacity:0.7000000000000001"></path></g><g id="freepik--TV--inject-68"><rect x="244.34" y="234.45" width="18.91" height="20.93" style="fill:#263238;stroke:#263238;stroke-linecap:round;stroke-linejoin:round"></rect><rect x="133.25" y="108.15" width="241.07" height="128.02" style="fill:#263238;stroke:#263238;stroke-linecap:round;stroke-linejoin:round"></rect><rect x="139.02" y="111.21" width="229.54" height="121.89" style="fill:#fff"></rect><g style="clip-path:url(#freepik--clip-path--inject-68)"><line x1="358.57" y1="150.82" x2="300.54" y2="208.84" style="fill:none;stroke:#263238;stroke-linecap:round;stroke-linejoin:round"></line><line x1="350.91" y1="172.79" x2="300.54" y2="223.17" style="fill:none;stroke:#263238;stroke-linecap:round;stroke-linejoin:round"></line><line x1="358.57" y1="165.14" x2="355.11" y2="168.6" style="fill:none;stroke:#263238;stroke-linecap:round;stroke-linejoin:round"></line><line x1="220.46" y1="187.03" x2="162.43" y2="245.06" style="fill:none;stroke:#263238;stroke-linecap:round;stroke-linejoin:round"></line><line x1="212.8" y1="209.01" x2="162.43" y2="259.38" style="fill:none;stroke:#263238;stroke-linecap:round;stroke-linejoin:round"></line><line x1="220.46" y1="201.35" x2="217" y2="204.81" style="fill:none;stroke:#263238;stroke-linecap:round;stroke-linejoin:round"></line><line x1="293.55" y1="73.78" x2="235.52" y2="131.81" style="fill:none;stroke:#263238;stroke-linecap:round;stroke-linejoin:round"></line><line x1="285.89" y1="95.76" x2="235.52" y2="146.13" style="fill:none;stroke:#263238;stroke-linecap:round;stroke-linejoin:round"></line><line x1="293.55" y1="88.1" x2="290.09" y2="91.56" style="fill:none;stroke:#263238;stroke-linecap:round;stroke-linejoin:round"></line><polygon points="287.53 177.7 279.22 183.18 279.22 232.32 320.04 232.32 320.04 182.62 311.16 177.14 287.53 177.7" style="fill:#fff;stroke:#263238;stroke-linecap:round;stroke-linejoin:round"></polygon><polygon points="295.28 187.91 299.25 194.9 293.77 223.63 300.38 231 307.38 222.68 301.9 194.52 307 187.72 300.57 179.97 295.28 187.91" style="fill:#407BFF;stroke:#263238;stroke-linecap:round;stroke-linejoin:round"></polygon><polygon points="289.8 165.42 289.8 176.76 300.2 187.15 311.16 176.38 311.16 166.18 289.8 165.42" style="fill:#a3a3a3;stroke:#263238;stroke-linecap:round;stroke-linejoin:round"></polygon><path d="M289.8,170.33a20.8,20.8,0,0,0,2.27,2,16,16,0,0,0,19.09,0v-6.13l-21.36-.76Z" style="fill:#263238;stroke:#263238;stroke-linecap:round;stroke-linejoin:round"></path><path d="M282.24,125.54V145.2s-4.91-3-6.42,2.46,2.27,10.2,4.34,10.39a6.42,6.42,0,0,0,3.22-.38s2.64,7.75,8.69,12.29a16,16,0,0,0,21-1.71c3.75-4,6.61-11.15,6.61-11.15s5.29,2.27,7-2.64c2.39-6.89-.37-9.26-2.08-10s-4.72.19-4.72.19,1.32-12.85,0-18.33-13.61-8.5-20.6-8.5S283.19,122.9,282.24,125.54Z" style="fill:#a3a3a3;stroke:#263238;stroke-linecap:round;stroke-linejoin:round"></path><path d="M319.85,126.3c-1.32-5.48-13.61-8.5-20.6-8.5s-16.06,5.1-17,7.74V145.2h2.65s-.95-5.1.38-7.94,2.64-3.59,2.83-5.29-1.51-5.86-1.51-5.86h30.8s-2.08,4.35-1.13,6.43,2.08,3.78,2.08,4.72v7.18h1.51l0,0C320,142.72,321.07,131.37,319.85,126.3Z" style="fill:#263238;stroke:#263238;stroke-linecap:round;stroke-linejoin:round"></path><path d="M298.5,146.33s-2.27,3-.57,5.86,5.86,2.84,7.94.57,0-5.29-.76-6.62" style="fill:none;stroke:#263238;stroke-linecap:round;stroke-linejoin:round"></path><path d="M303.41,159.37c0,.94-.55,1.7-1.23,1.7s-1.23-.76-1.23-1.7.55-1.7,1.23-1.7S303.41,158.43,303.41,159.37Z" style="fill:#263238;stroke:#263238;stroke-linecap:round;stroke-linejoin:round"></path><ellipse cx="293.11" cy="143.03" rx="1.23" ry="1.98" style="fill:#263238"></ellipse><path d="M311.44,143c0,1.09-.55,2-1.23,2s-1.23-.89-1.23-2,.55-2,1.23-2S311.44,141.93,311.44,143Z" style="fill:#263238"></path><rect x="289.42" y="137.83" width="7.48" height="1.89" rx="0.76" style="fill:#263238;stroke:#263238;stroke-linecap:round;stroke-linejoin:round"></rect><rect x="305.57" y="137.83" width="7.48" height="1.89" rx="0.76" style="fill:#263238;stroke:#263238;stroke-linecap:round;stroke-linejoin:round"></rect><polygon points="300.2 187.15 290.56 195.09 287.53 177.7 289.8 176.76 300.2 187.15" style="fill:#fff;stroke:#263238;stroke-linecap:round;stroke-linejoin:round"></polygon><polygon points="300.2 187.15 311.72 195.85 314.18 178.84 311.16 176.38 300.2 187.15" style="fill:#fff;stroke:#263238;stroke-linecap:round;stroke-linejoin:round"></polygon><polygon points="288.67 176.95 300.38 229.11 313.05 177.33 341.2 191.5 349.33 232.89 251.06 232.89 263.16 189.61 288.67 176.95" style="fill:#263238;stroke:#263238;stroke-linecap:round;stroke-linejoin:round"></polygon><polygon points="264.25 150.32 136.34 150.32 136.34 125.14 270.67 125.14 264.25 150.32" style="fill:#407BFF"></polygon><path d="M157.1,134.5V135c0,1.53-.46,2.51-1.5,3,1.25.49,1.74,1.62,1.74,3.19v1.21c0,2.3-1.21,3.53-3.55,3.53h-3.68V131.08h3.53C156.06,131.08,157.1,132.21,157.1,134.5Zm-4.65-1.29v3.93h.91c.87,0,1.41-.38,1.41-1.57v-.83c0-1.07-.36-1.53-1.19-1.53Zm0,6v4.57h1.34c.79,0,1.21-.36,1.21-1.46v-1.3c0-1.38-.45-1.81-1.51-1.81Z" style="fill:#263238"></path><path d="M164.06,146a4.48,4.48,0,0,1-.22-1.83v-2.34c0-1.38-.46-1.89-1.53-1.89h-.8V146h-2.34V131.08h3.53c2.42,0,3.46,1.13,3.46,3.42v1.17c0,1.53-.49,2.53-1.53,3,1.17.49,1.55,1.62,1.55,3.17v2.29a4.27,4.27,0,0,0,.26,1.81Zm-2.55-12.75v4.57h.91c.87,0,1.4-.39,1.4-1.58v-1.46c0-1.07-.36-1.53-1.19-1.53Z" style="fill:#263238"></path><path d="M170.48,137.35h3.21v2.13h-3.21v4.35h4V146h-6.38V131.08h6.38v2.13h-4Z" style="fill:#263238"></path><path d="M184,146H181.6l-.41-2.7h-2.86l-.41,2.7h-2.15l2.38-14.88h3.43Zm-5.34-4.72h2.26l-1.13-7.52Z" style="fill:#263238"></path><path d="M188.53,140l-.72,1.36V146h-2.34V131.08h2.34v6.48l3.06-6.48h2.34L190,137.71l3.26,8.25H190.8Z" style="fill:#263238"></path><path d="M194.7,131.08H197V146H194.7Z" style="fill:#263238"></path><path d="M201.24,135.18V146h-2.1V131.08h2.93l2.41,8.91v-8.91h2.08V146h-2.4Z" style="fill:#263238"></path><path d="M212.17,137.67h3.28v4.72c0,2.38-1.19,3.74-3.49,3.74s-3.49-1.36-3.49-3.74v-7.74c0-2.38,1.19-3.74,3.49-3.74s3.49,1.36,3.49,3.74v1.45h-2.22v-1.6c0-1.06-.46-1.46-1.21-1.46s-1.21.4-1.21,1.46v8c0,1.06.47,1.44,1.21,1.44s1.21-.38,1.21-1.44V139.8h-1.06Z" style="fill:#263238"></path><path d="M154,161.53v17.23h-3.36V155h4.69l3.84,14.24V155h3.33v23.79h-3.84Z" style="fill:#263238"></path><path d="M169.56,165h5.13v3.4h-5.13v7H176v3.39h-10.2V155H176v3.4h-6.46Z" style="fill:#263238"></path><path d="M187.31,166.08,186,178.76h-5.14L178.16,155h3.64l2,18.76L185.61,155h3.6l1.87,18.9L193,155h3.26l-2.65,23.79h-5Z" style="fill:#263238"></path><path d="M203.86,154.7c3.64,0,5.51,2.17,5.51,6v.75h-3.53v-1c0-1.7-.68-2.35-1.87-2.35s-1.87.65-1.87,2.35c0,4.9,7.3,5.81,7.3,12.61,0,3.81-1.9,6-5.57,6s-5.58-2.18-5.58-6v-1.46h3.54v1.7c0,1.7.75,2.31,1.94,2.31s1.94-.61,1.94-2.31c0-4.89-7.31-5.81-7.31-12.61C198.36,156.87,200.23,154.7,203.86,154.7Z" style="fill:#263238"></path><rect x="136.34" y="223.91" width="233.09" height="4.44" style="fill:#407BFF"></rect></g><rect x="139.02" y="111.21" width="229.54" height="121.89" style="fill:none;stroke:#263238;stroke-linecap:round;stroke-linejoin:round"></rect><rect x="223.17" y="252.18" width="61.24" height="4.56" style="fill:#263238;stroke:#263238;stroke-linecap:round;stroke-linejoin:round"></rect></g><g id="freepik--Picture--inject-68"><polygon points="90.98 236.91 86.79 256.12 97.96 256.12 90.98 236.91" style="fill:#263238;stroke:#263238;stroke-linecap:round;stroke-linejoin:round"></polygon><polygon points="116.45 217.01 84.68 217.01 94.49 256.46 126.26 256.46 116.45 217.01" style="fill:#263238;stroke:#263238;stroke-linecap:round;stroke-linejoin:round"></polygon><polygon points="113.92 221.55 89.46 221.55 97.02 251.93 121.48 251.93 113.92 221.55" style="fill:#fff;stroke:#263238;stroke-linecap:round;stroke-linejoin:round"></polygon></g><g id="freepik--Plants--inject-68"><path d="M413.91,239s-23.88-36.41-20.3-44.77,16.12,6,16.12,6-18.5-48.95-6-59.7,16.72,44.18,16.72,44.18S431.82,153,440.77,165,427,202,427,202s15.53.6,11.35,10.74-15.52,20.9-15.52,20.9Z" style="fill:#407BFF"></path><path d="M409.07,231.09s-14.84-13.94-15.29-20.24,9.44,1.35,13.49,4.05-10.34-17.54-9.89-32.38,8.54-9,11.24-2.69,4.05,12.14,5.4,13.49,3.59-10.35,9.44-7.2c9.34,5-5.85,22-2.7,25.18s10.34-13.49,13.94-4.49S423,232,423,232" style="fill:none;stroke:#263238;stroke-linecap:round;stroke-linejoin:round"></path><line x1="418.51" y1="230.19" x2="407.27" y2="196.46" style="fill:none;stroke:#263238;stroke-linecap:round;stroke-linejoin:round"></line><line x1="412.67" y1="213.1" x2="417.16" y2="202.76" style="fill:none;stroke:#263238;stroke-linecap:round;stroke-linejoin:round"></line><polyline points="403.67 219.85 416.26 223 422.56 218.5" style="fill:none;stroke:#263238;stroke-linecap:round;stroke-linejoin:round"></polyline><polygon points="431.82 228.25 400.18 228.25 403.34 256.31 428.66 256.31 431.82 228.25" style="fill:#263238;stroke:#263238;stroke-linecap:round;stroke-linejoin:round"></polygon></g><g id="freepik--Furniture--inject-68"><rect x="74.52" y="256.73" width="371.48" height="150.88" style="fill:#fff;stroke:#263238;stroke-linecap:round;stroke-linejoin:round"></rect><rect x="85.01" y="277.42" width="171.09" height="52.93" style="fill:#fff;stroke:#263238;stroke-linecap:round;stroke-linejoin:round"></rect><rect x="265.18" y="277.42" width="171.09" height="52.93" style="fill:#fff;stroke:#263238;stroke-linecap:round;stroke-linejoin:round"></rect><rect x="85.01" y="342.42" width="171.09" height="52.93" style="fill:#fff;stroke:#263238;stroke-linecap:round;stroke-linejoin:round"></rect><rect x="265.18" y="342.42" width="171.09" height="52.93" style="fill:#fff;stroke:#263238;stroke-linecap:round;stroke-linejoin:round"></rect><rect x="74.52" y="259.58" width="371.48" height="10.77" style="fill:#263238;stroke:#263238;stroke-linecap:round;stroke-linejoin:round"></rect><rect x="74.52" y="256.73" width="371.48" height="10.77" style="fill:#5e5e5e;stroke:#263238;stroke-linecap:round;stroke-linejoin:round"></rect></g><g id="freepik--character-2--inject-68"><path d="M332.85,266.54S329,273.17,329,276.76s1.93,6.63.55,9.39-1.66,5-.28,11.6,3.87,14.64,7.74,14.92,10.77.27,10.77.27a14.59,14.59,0,0,1,.27,9.39c-1.65,4.7-9.94,10.22-18,14.64s-23.2,9.12-26.51,14.36-6.08,14.09-6.08,14.09H418.19a106.83,106.83,0,0,0-8-16c-4.69-7.46-13.53-10.22-24.3-17.95s-13.26-19.89-13.26-27.9-1.1-27.62-12.15-37S336.17,262.12,332.85,266.54Z" style="fill:#fff;stroke:#263238;stroke-linecap:round;stroke-linejoin:round"></path><path d="M410.18,349.4c-4.69-7.46-13.53-10.22-24.3-17.95a30.48,30.48,0,0,1-4.56-4.05c-4.74,4.44-12.66,9.67-23.33,9-9-.55-15-2.86-18.75-5.05a104.17,104.17,0,0,1-9.15,5.6c-8,4.42-23.2,9.12-26.51,14.36s-6.08,14.09-6.08,14.09H418.19A106.83,106.83,0,0,0,410.18,349.4Z" style="fill:#407BFF;stroke:#263238;stroke-linecap:round;stroke-linejoin:round"></path><path d="M352.74,243.62s-1.66-5.8-10.22-5.25-9.39,9.95-11.6,11.6-8.84.56-9.67,8.56,3,11.33,9.39,11.33,4.7,1.38,6.36,8.84,4.14,8.56,8,9.11,6.36.28,5.25,5-.83,9.39,2.21,13.26,12.15,6.9,21,2.76,14.64-11.88,16-30.1-3.87-24.86-9.67-27.07-7.18-2.76-8.83-5,.27-6.35-6.91-6.35A19.14,19.14,0,0,0,352.74,243.62Z" style="fill:#5c5c5c;stroke:#263238;stroke-linecap:round;stroke-linejoin:round"></path><path d="M346.45,282.76a11.2,11.2,0,0,0,5.34.69" style="fill:none;stroke:#263238;stroke-linecap:round;stroke-linejoin:round"></path><path d="M330.3,256.8s-5.14,6.59-1.29,8.17,9.45-3.87,11.6,4.72c1,4,1.5,7.42,2.68,9.84" style="fill:none;stroke:#263238;stroke-linecap:round;stroke-linejoin:round"></path><path d="M385.33,276.49s-2.49-12.43-12.71-14.64-12.15,9.11-11.6,21-2.48,12.7-5.8,22.09,8,9.39,5.53,15.47-8,8-4.7,14.09,10.5,2.76,9.39,11,7.74,17.68,18.78,14.09,17.4-10.5,17.13-22.92-10.22-18.51-7.74-25.69,6.36-8.56,3.59-15.74S385.88,287.53,385.33,276.49Z" style="fill:#5c5c5c;stroke:#263238;stroke-linecap:round;stroke-linejoin:round"></path><path d="M366.42,282.77a15.79,15.79,0,0,0,1.7,4.55c4.73,8.16-9,15.9-6.45,20.2s14.62,8.59,7.31,16.33-2.58,12.46,1.72,15.47-4.73,7.31,0,12,12.46,8.16,19.77.43" style="fill:none;stroke:#263238;stroke-linecap:round;stroke-linejoin:round"></path><path d="M367.69,265.83a42,42,0,0,0-1.26,5.52" style="fill:none;stroke:#263238;stroke-linecap:round;stroke-linejoin:round"></path></g><g id="freepik--character-1--inject-68"><path d="M139.58,325.1s-29,13-35.91,15.74S87.93,345,85.72,350s-3.86,16.3-3.86,16.3H237.35s-7.18-18.51-13.26-22.93-25.68-9.11-34.52-12.42-10.5-5-15.19-5.53S139.58,325.1,139.58,325.1Z" style="fill:#407BFF;stroke:#263238;stroke-linecap:round;stroke-linejoin:round"></path><path d="M178,260.19s5,7.46,4.42,10.77-1.94,5.25-1.11,7.46,3.59,3,4.15,7.73,1.65,16-.83,19.06-13,5.8-13,5.8v10.77l-28.17-1.1V302.45s-3.87-5-3.87-17.68,17.12-24.3,23.48-27.34S178,260.19,178,260.19Z" style="fill:#fff;stroke:#263238;stroke-linecap:round;stroke-linejoin:round"></path><path d="M176.31,263.51s3.32,6.62.83,9.11-5,2.76-4.69,5.8.55,5-1.66,6.35-4.14.83-4.42,2.49,1.1,14.08-4.14,19.05-17.13,5.53-21.82.56-15.47-20.44-19.34-31.76,10.5-20.17,13.26-21.27,6.63-.55,7.46-4.7,2.76-7.73,9.94-9.66,12.71,7.73,16,6.63,7.18-7.18,14.09-3.59,5.52,14.91,2.21,18A12.62,12.62,0,0,1,176.31,263.51Z" style="fill:#263238;stroke:#263238;stroke-linecap:round;stroke-linejoin:round"></path><line x1="188.46" y1="273.17" x2="164.99" y2="284.77" style="fill:#fff;stroke:#263238;stroke-linecap:round;stroke-linejoin:round"></line><path d="M182.11,272.62s8-.28,7.74,1.38,0,8-1.66,9.12a2.88,2.88,0,0,1-2.76.55" style="fill:none;stroke:#263238;stroke-linecap:round;stroke-linejoin:round"></path><path d="M139.58,317.36l-3.32,9.39,45.3,1.11s-4.14-8.84-8-10.22S144.83,315.71,139.58,317.36Z" style="fill:#407BFF;stroke:#263238;stroke-linecap:round;stroke-linejoin:round"></path><path d="M173,287.26s-5.53-9.12-9.67-5.25-.83,11.6,2.49,15.19,5.8,1.66,7.45-.55" style="fill:#fff;stroke:#263238;stroke-linecap:round;stroke-linejoin:round"></path></g><g id="freepik--Couch--inject-68"><path d="M45.53,358H463.11a16.08,16.08,0,0,1,16.08,16.08v66.47a0,0,0,0,1,0,0H29.45a0,0,0,0,1,0,0V374.1A16.08,16.08,0,0,1,45.53,358Z" style="fill:#707070"></path><path d="M45.53,390.43H463.11a16.08,16.08,0,0,1,16.08,16.08v54.32a0,0,0,0,1,0,0H29.45a0,0,0,0,1,0,0V406.52A16.08,16.08,0,0,1,45.53,390.43Z" style="fill:#3d3d3d"></path></g></svg>